# xmcd
#
# Track frame offsets: 
#        151
#        19244
#        47211
#        65530
#        86441
#        108452
#        126679
#        161202
#        182511
#        202344
#        225465
#
# Disc length: 3260 seconds
#
# Revision: 0
# Processed by: cddbd v1.5PL3 Copyright (c) Steve Scherf et al.
# Submitted via: ExactAudioCopy v0.95a3
#
DISCID=9f0cba0b
DTITLE=Nellie "Tiger" Travis - I Got It Like That
DYEAR=2000
DGENRE=Blues
TTITLE0=Oil and Water
TTITLE1=I've Got Amnesia
TTITLE2=One Man's Woman
TTITLE3=I Got It Like That
TTITLE4=Hooked On You
TTITLE5=Dime and A Quarter
TTITLE6=It's Over
TTITLE7=Something Special
TTITLE8=Get Your Groove On
TTITLE9=Thank You
TTITLE10=Thinking Of You
EXTD=
EXTT0=
EXTT1=
EXTT2=
EXTT3=
EXTT4=
EXTT5=
EXTT6=
EXTT7=
EXTT8=
EXTT9=
EXTT10=
PLAYORDER=
